Coordinates
version=1
nRows=10
nColumns=33
inDegrees=yes

Units are S.I. units (second, meters, Newtons, ...)
Angles are in degrees.

endheader
time	ground_thorax_rot_x	ground_thorax_rot_y	ground_thorax_rot_z	ground_thorax_tx	ground_thorax_ty	ground_thorax_tz	clav_prot_r	clav_elev_r	scapula_abduction_r	scapula_elevation_r	scapula_upward_rot_r	scapula_winging_r	shoulder_elv_r	plane_of_elev_r	axial_rot_r	elbow_flexion_r	pro_sup_r	wrist_flex_r	wrist_dev_r	clav_prot_l	clav_elev_l	scapula_abduction_l	scapula_elevation_l	scapula_upward_rot_l	scapula_winging_l	shoulder_elv_l	plane_of_elev_l	axial_rot_l	elbow_flexion_l	pro_sup_l	wrist_flex_l	wrist_dev_l
      3.98000000	     38.57933642	     15.68128506	     19.39640672	   -119.60567292	    780.75037602	      6.55319215	     15.97204231	     41.67059769	     41.88190293	     44.15018855	    -25.72407393	   1711.96115750	  -1920.14945976	    149.39621364	   -124.27991161	   1089.54072383	   -348.87758898	     16.98968082	     13.15161486	      4.87898459	    -45.00000000	    -35.49910383	     45.00000000	    -42.88218624	  -2431.82567426	   1342.29084755	    137.95392650	    156.55363464	   1448.34046064	     13.23613504	      9.81705057	    -18.05850164
      3.99000000	     38.25538106	     15.29007014	     19.31335979	   -115.52773093	    778.45617343	      6.64224793	     16.09118715	     41.39636930	     42.32233964	     43.44418411	    -24.86393464	   1711.63017781	  -1920.41811609	    149.64468991	   -123.66604540	   1089.46590624	   -347.61167816	     17.00041064	     13.02715453	      4.60584085	    -45.00000000	    -35.75558074	     45.00000000	    -42.15008811	  -2432.08472463	   1342.05444666	    137.97788674	    156.58350669	   1448.11424171	     14.80146128	      9.73501436	    -18.04083511
      4.00000000	     37.93585006	     14.82426600	     19.09485069	   -111.52399867	    776.32681554	      6.75020679	     16.02713939	     41.11422853	     42.72458948	     42.68835091	    -23.78024705	   1711.18229446	  -1920.69978896	    149.82154957	   -122.91135878	   1089.37076728	   -346.22482603	     17.01017684	     12.87522418	      4.48604556	    -45.00000000	    -36.16928533	     45.00000000	    -41.23348090	  -2432.36079505	   1341.80358804	    138.05787402	    156.56468360	   1447.93117437	     16.38927716	      9.62928344	    -18.04792177
      4.01000000	     37.65598538	     13.91022491	     18.38580084	   -107.61754662	    774.38803465	      6.87883743	     15.92054410	     40.77124619	     43.45391906	     41.70969424	    -21.85558678	   1710.61502504	  -1920.91148035	    150.39464967	   -121.98707705	   1089.39293944	   -344.54135034	     17.06928761	     12.65216504	      4.17119294	    -45.00000000	    -36.84617914	     45.00000000	    -39.52821853	  -2432.45530697	   1341.47366824	    138.04701045	    156.72471386	   1447.71134942	     18.13754346	      9.54503759	    -18.05870456
      4.02000000	     37.29608900	     11.79726187	     15.89502235	   -103.82245916	    772.65969193	      7.03048661	     14.30927855	     40.40342585	     45.00000000	     39.77915050	    -17.09372143	   1708.63545345	  -1921.31792011	    151.30787294	   -119.97198721	   1089.42585817	   -341.87953785	     17.13128026	     12.10935375	      4.14431525	    -45.00000000	    -39.02805084	     45.00000000	    -34.84790385	  -2431.85783306	   1340.86803031	    137.77007320	    157.23385869	   1447.55837088	     20.58525840	      9.55843509	    -18.17533252
      4.03000000	     36.97754010	     12.31776014	     16.92957884	   -100.15993556	    771.16430863	      7.20620234	     15.09310175	     39.96327819	     45.00000000	     39.75196648	    -18.45799786	   1708.77167136	  -1921.60138595	    150.91537795	   -119.83562389	   1089.24799089	   -341.12396774	     17.15075118	     12.29710544	      4.47320147	    -45.00000000	    -38.66350389	     45.00000000	    -35.79437743	  -2432.59588043	   1340.84638193	    138.28907659	    156.34541340	   1447.31358017	     21.47156221	      9.17499978	    -18.11915683
      4.04000000	     36.62582548	     11.41258458	     15.93235894	    -96.63776326	    769.90798224	      7.40931473	     14.57116884	     39.68032464	     45.00000000	     38.69733480	    -15.71206566	   1708.59171426	  -1921.47376387	    151.55416253	   -119.17781625	   1089.34498604	   -339.73304551	     17.16155011	     11.94793998	      4.18919312	    -45.00000000	    -39.85341736	     45.00000000	    -33.34281062	  -2432.36590580	   1340.44414216	    138.29476714	    156.49280337	   1447.13594712	     22.56474402	      9.18025636	    -18.11239351
      4.05000000	     36.18924913	     10.32548378	     14.28432677	    -93.27805152	    768.90007568	      7.64019050	     12.76483612	     39.23577148	     45.00000000	     37.63580128	    -12.60472669	   1707.78077532	  -1921.86005850	    151.69391481	   -118.04620130	   1089.27627778	   -338.03976776	     17.14478333	     11.68811716	      4.81198788	    -45.00000000	    -42.36631933	     45.00000000	    -29.52176455	  -2431.66405229	   1339.92882616	    138.29699995	    156.39158204	   1446.92037782	     23.85225912	      9.11724661	    -18.14337878
      4.06000000	     36.00548951	     10.72427907	     15.33433884	    -90.09331667	    768.13532137	      7.89890582	     13.68472083	     38.90077245	     45.00000000	     37.65574312	    -14.00309743	   1707.91803506	  -1922.14924315	    151.19692614	   -117.80239161	   1089.10852477	   -337.39563362	     17.16533907	     11.82000117	      4.81299101	    -45.00000000	    -41.78571880	     45.00000000	    -30.83479868	  -2432.29895961	   1339.97808352	    138.58756305	    155.42081680	   1446.75512156	     24.50324796	      8.74584319	    -18.07185618
      4.07000000	     35.78184278	     10.90361474	     15.90872910	    -87.09620845	    767.59795423	      8.18400164	     13.25394265	     38.58636364	     45.00000000	     37.40085942	    -14.44701738	   1707.82230534	  -1922.28747315	    150.93988776	   -118.04283776	   1088.99263610	   -336.86707136	     17.08666852	     11.74026281	      4.93438992	    -45.00000000	    -41.38063266	     45.00000000	    -31.50283592	  -2432.47922031	   1339.99971815	    138.41444710	    154.82237178	   1446.71208072	     25.05996957	      8.52727428	    -18.01267293
